<svg width="33" height="33" viewBox="0 0 33 33" fill="none" xmlns="http://www.w3.org/2000/svg">
<g clip-path="url(#clip0_40_59)">
<path d="M33 16.5001C33 7.3875 25.6126 0.00012207 16.5 0.00012207C7.38738 0.00012207 0 7.3875 0 16.5001C0 24.238 5.32752 30.731 12.5143 32.5144V21.5425H9.11196V16.5001H12.5143V14.3274C12.5143 8.71146 15.0559 6.10842 20.5696 6.10842C21.615 6.10842 23.4188 6.31368 24.1567 6.51828V11.0888C23.7673 11.0479 23.0908 11.0274 22.2506 11.0274C19.5452 11.0274 18.4998 12.0524 18.4998 14.7168V16.5001H23.8894L22.9634 21.5425H18.4998V32.8793C26.6699 31.8926 33.0007 24.9362 33.0007 16.5001H33Z" fill="black"/>
<path d="M22.9628 21.5425L23.8887 16.5001H18.4992V14.7168C18.4992 12.0524 19.5446 11.0274 22.2499 11.0274C23.0901 11.0274 23.7666 11.0478 24.156 11.0888V6.51826C23.4181 6.313 21.6144 6.1084 20.5689 6.1084C15.0553 6.1084 12.5136 8.71144 12.5136 14.3274V16.5001H9.11133V21.5425H12.5136V32.5143C13.7901 32.8311 15.1252 33.0001 16.4994 33.0001C17.1759 33.0001 17.8431 32.9585 18.4985 32.8793V21.5425H22.9621H22.9628Z" fill="white"/>
</g>
<defs>
<clipPath id="clip0_40_59">
<rect width="33" height="33" fill="white"/>
</clipPath>
</defs>
</svg>
