<svg width="33" height="33" viewBox="0 0 33 33" fill="none" xmlns="http://www.w3.org/2000/svg">
<g clip-path="url(#clip0_40_62)">
<path d="M30.564 0H2.43604C1.78996 0 1.17035 0.256654 0.7135 0.7135C0.256654 1.17035 0 1.78996 0 2.43604V30.564C0 31.21 0.256654 31.8297 0.7135 32.2865C1.17035 32.7433 1.78996 33 2.43604 33H30.564C31.21 33 31.8297 32.7433 32.2865 32.2865C32.7433 31.8297 33 31.21 33 30.564V2.43604C33 1.78996 32.7433 1.17035 32.2865 0.7135C31.8297 0.256654 31.21 0 30.564 0ZM9.83583 28.1119H4.87438V12.3521H9.83583V28.1119ZM7.35167 10.1681C6.78888 10.165 6.23963 9.99514 5.77326 9.68012C5.30689 9.3651 4.94428 8.91898 4.73121 8.39807C4.51813 7.87716 4.46414 7.30481 4.57604 6.75325C4.68794 6.20169 4.96073 5.69563 5.35996 5.29895C5.7592 4.90227 6.267 4.63274 6.81927 4.52438C7.37154 4.41602 7.94353 4.47369 8.46306 4.6901C8.98259 4.90652 9.42637 5.27198 9.73839 5.74037C10.0504 6.20875 10.2167 6.75908 10.2163 7.32188C10.2216 7.69867 10.151 8.07268 10.0086 8.42161C9.86633 8.77053 9.65522 9.08724 9.38791 9.35284C9.12059 9.61845 8.80254 9.82751 8.45271 9.96758C8.10287 10.1077 7.72842 10.1759 7.35167 10.1681ZM28.1233 28.1256H23.1642V19.5158C23.1642 16.9767 22.0848 16.1929 20.6915 16.1929C19.2202 16.1929 17.7765 17.3021 17.7765 19.58V28.1256H12.815V12.3635H17.5863V14.5475H17.6504C18.1294 13.5781 19.8069 11.9213 22.3667 11.9213C25.135 11.9213 28.1256 13.5644 28.1256 18.3769L28.1233 28.1256Z" fill="black"/>
</g>
<defs>
<clipPath id="clip0_40_62">
<rect width="33" height="33" fill="white"/>
</clipPath>
</defs>
</svg>
