<svg width="1018" height="223" viewBox="0 0 1018 223" fill="none" xmlns="http://www.w3.org/2000/svg">
<g filter="url(#filter0_d_32_82)">
<path d="M46.8605 111.905L25.3414 79.6395L4.65858 114.361L43.2782 117.919L46.8605 111.905ZM320 210.998L319.983 207.498L320 210.998ZM588 122.054L587.691 118.568L588 122.054ZM772 134.582L771.624 131.102L772 134.582ZM882.965 114.144C884.823 113.611 885.897 111.672 885.364 109.814C884.831 107.956 882.893 106.883 881.035 107.416L882.965 114.144ZM40.3127 116.152C67.9172 131.966 113.81 156.636 164.741 177.303C215.595 197.938 271.831 214.734 320.017 214.498L319.983 207.498C273.192 207.727 217.985 191.353 167.373 170.816C116.841 150.311 71.2481 125.807 43.7924 110.078L40.3127 116.152ZM320.017 214.498C375.073 214.228 415.732 194 455.727 173.011C495.79 151.985 535.116 130.249 588.309 125.541L587.691 118.568C532.883 123.419 492.344 145.889 452.474 166.812C412.537 187.772 373.198 207.237 319.983 207.498L320.017 214.498ZM588.309 125.541C623.69 122.409 651.35 127.394 679.432 132.292C707.518 137.191 735.997 141.997 772.376 138.061L771.624 131.102C736.307 134.922 708.678 130.288 680.634 125.396C652.585 120.503 624.094 115.346 587.691 118.568L588.309 125.541ZM772.376 138.061C794.332 135.686 822.017 129.689 844.113 124.32C855.183 121.63 864.89 119.088 871.831 117.218C875.301 116.283 878.081 115.515 879.995 114.981C880.953 114.714 881.693 114.505 882.195 114.363C882.447 114.292 882.638 114.238 882.767 114.201C882.832 114.182 882.881 114.168 882.914 114.159C882.931 114.154 882.943 114.15 882.952 114.148C882.956 114.147 882.959 114.146 882.962 114.145C882.963 114.145 882.964 114.145 882.964 114.144C882.965 114.144 882.965 114.144 882 110.78C881.035 107.416 881.034 107.416 881.034 107.416C881.034 107.416 881.033 107.416 881.032 107.416C881.03 107.417 881.028 107.418 881.024 107.419C881.016 107.421 881.005 107.424 880.989 107.429C880.958 107.438 880.911 107.451 880.848 107.469C880.723 107.505 880.535 107.558 880.288 107.628C879.794 107.768 879.062 107.974 878.114 108.239C876.218 108.768 873.458 109.53 870.01 110.459C863.111 112.317 853.462 114.845 842.461 117.518C820.415 122.875 793.1 128.779 771.624 131.102L772.376 138.061Z" fill="black"/>
</g>
<g clip-path="url(#clip0_32_82)">
<path d="M900.417 124.222L890.278 132.902L872.013 91.8773L885.247 90.15L900.417 124.222Z" fill="#F7CF52"/>
<path d="M925.004 61.2031L881.069 80.7642L862.958 69.6664L897.158 54.4396L925.004 61.2031Z" fill="#F7CF52"/>
<path d="M948.535 114.048L934.925 139.266L900.724 154.496L904.596 133.608L948.535 114.048Z" fill="#F7CF52"/>
<path fill-rule="evenodd" clip-rule="evenodd" d="M1002.6 80.3723C1009.04 72.1569 1013.77 62.5835 1016.35 52.1935C1006.9 47.1614 996.626 44.2725 986.214 43.5531C974.116 42.7124 961.839 44.803 950.472 49.864L925.007 61.2045L925.004 61.2031L881.069 80.7642L885.248 90.15L900.418 124.222L904.596 133.608L948.535 114.048L973.999 102.708C985.362 97.649 995.13 89.924 1002.6 80.3723ZM956.519 94.6607C958.406 93.8206 960.025 92.626 961.331 91.1903C958.307 94.5085 953.856 96.2654 949.338 95.8551C951.717 96.0719 954.182 95.7013 956.519 94.6607ZM964.295 86.2037C964.202 86.4691 964.102 86.7317 963.995 86.9912C964.044 86.8726 964.092 86.7531 964.138 86.6326C964.193 86.4899 964.245 86.347 964.295 86.2037ZM963.848 75.5679C964.73 77.5486 965.131 79.6215 965.101 81.6556C965.174 76.4426 962.402 71.4673 957.727 68.8458C957.584 68.7648 957.439 68.6862 957.292 68.6099C960.104 70.0652 962.46 72.45 963.848 75.5679ZM954.822 67.6069C955.405 67.7836 955.977 67.9969 956.534 68.2454C956.3 68.1411 956.062 68.0425 955.819 67.9494C955.488 67.8223 955.156 67.7082 954.822 67.6069ZM944.755 68.2388C946.68 67.3819 948.692 66.9794 950.671 66.985C946.676 66.9765 942.836 68.6353 940.103 71.5367C941.381 70.1777 942.945 69.0451 944.755 68.2388ZM937.033 86.3556C936.552 85.0231 936.264 83.6176 936.191 82.184C936.261 83.5798 936.537 84.9842 937.033 86.3556ZM937.916 88.3289C938.561 89.5246 939.355 90.5966 940.265 91.5322C939.333 90.5722 938.545 89.4923 937.916 88.3289ZM947.968 95.6638C947.772 95.6269 947.578 95.5861 947.385 95.5413C947.414 95.548 947.443 95.5545 947.472 95.5609C947.637 95.5982 947.802 95.6325 947.968 95.6638Z" fill="#E0383E"/>
</g>
<defs>
<filter id="filter0_d_32_82" x="0.658691" y="79.6395" width="888.842" height="142.861" filterUnits="userSpaceOnUse" color-interpolation-filters="sRGB">
<feFlood flood-opacity="0" result="BackgroundImageFix"/>
<feColorMatrix in="SourceAlpha" type="matrix" values="0 0 0 0 0 0 0 0 0 0 0 0 0 0 0 0 0 0 127 0" result="hardAlpha"/>
<feOffset dy="4"/>
<feGaussianBlur stdDeviation="2"/>
<feComposite in2="hardAlpha" operator="out"/>
<feColorMatrix type="matrix" values="0 0 0 0 0 0 0 0 0 0 0 0 0 0 0 0 0 0 0.25 0"/>
<feBlend mode="normal" in2="BackgroundImageFix" result="effect1_dropShadow_32_82"/>
<feBlend mode="normal" in="SourceGraphic" in2="effect1_dropShadow_32_82" result="shape"/>
</filter>
<clipPath id="clip0_32_82">
<rect width="145" height="145" fill="white" transform="translate(881.963) rotate(21)"/>
</clipPath>
</defs>
</svg>
